<svg xmlns="http://www.w3.org/2000/svg" width="704.999" height="268" viewBox="0 0 704.999 268">
  <path id="Path_4256" data-name="Path 4256" d="M345.686,237.306c-47.405-38.517-131.737-38.645-189.215,0l-52.695,35.418L51.081,237.306c-57.469-38.645-141.81-38.517-189.206,0l-110.6,92.428c58.757-25.875,147.565,8.813,200.705,44.547l.386.266L103.756,476.37l.01-.01.01.01.02-.01.01.01L255.184,374.547l.4-.266c53.14-35.734,141.939-70.422,200.7-44.547ZM-19.1,331.6a237.146,237.146,0,0,0-108.361-39.336L-109.2,280c38.887-27.543,86.3-28.865,131.36,0l35.4,23.8h0L-1.435,343.471Zm122.9,82.629-.01-.01-.02.01-.01-.01-.01.01L44.762,374.547l58.994-39.671.01.01.01-.01.02.01.01-.01L162.8,374.547ZM226.657,331.6,209,343.471,150,303.8h0L185.4,280c45.048-28.865,92.473-27.543,131.36,0l18.245,12.267A237.106,237.106,0,0,0,226.657,331.6Z" transform="translate(248.724 -208.37)" fill="#6e6e74" opacity="0.1"/>
</svg>
