<svg xmlns="http://www.w3.org/2000/svg" width="2099.215" height="798" viewBox="0 0 2099.215 798">
  <path id="Path_4257" data-name="Path 4257" d="M1521.2,294.529c-141.154-114.688-392.261-115.069-563.41,0l-156.9,105.462-156.9-105.462c-171.12-115.069-422.256-114.688-563.381,0L-248.724,569.745C-73.77,492.7,190.667,595.985,348.9,702.387l1.15.793,450.775,303.19.03-.029.029.029.059-.029.029.029,450.746-303.19,1.181-.793c158.231-106.4,422.639-209.688,597.593-132.642ZM435.019,575.3c-98.449-66.2-209.137-105.52-322.657-117.127l54.356-36.525c115.791-82.012,256.975-85.95,391.14,0l105.409,70.875h0L487.606,610.648ZM800.972,821.336l-.029-.029-.059.029-.029-.029-.03.029L625.162,703.18,800.824,585.054l.03.029.029-.029.059.029.029-.029L976.634,703.18ZM1166.777,575.3l-52.586,35.35L938.529,492.522h0l105.409-70.875c134.136-85.95,275.349-82.012,391.14,0l54.326,36.525A706.009,706.009,0,0,0,1166.777,575.3Z" transform="translate(248.724 -208.37)" fill="#007540" opacity="0.32"/>
</svg>
