<?xml version="1.0" standalone="no"?>
<!DOCTYPE svg PUBLIC "-//W3C//DTD SVG 20010904//EN"
 "http://www.w3.org/TR/2001/REC-SVG-20010904/DTD/svg10.dtd">
<svg version="1.0" xmlns="http://www.w3.org/2000/svg"
 width="1120.000000pt" height="1120.000000pt" viewBox="0 0 1120.000000 1120.000000"
 preserveAspectRatio="xMidYMid meet">
<metadata>
Created by potrace 1.14, written by Peter Selinger 2001-2017
</metadata>
<g transform="translate(0.000000,1120.000000) scale(0.100000,-0.100000)"
fill="#000000" stroke="none">
<path d="M5735 8423 c-78 -18 -83 -19 -130 -36 -62 -22 -151 -73 -252 -143
-50 -35 -96 -64 -102 -64 -6 0 -11 -3 -11 -7 0 -5 -21 -21 -48 -38 -26 -16
-49 -32 -52 -35 -3 -3 -78 -54 -167 -114 -90 -60 -163 -110 -163 -112 0 -2 22
5 49 16 51 20 141 45 201 55 126 22 328 22 430 0 14 -3 39 -8 55 -11 62 -11
213 -68 290 -109 45 -23 138 -82 208 -129 69 -47 130 -86 136 -86 5 0 11 -4
13 -9 4 -10 136 -101 148 -101 4 0 10 -3 12 -8 3 -7 249 -176 344 -236 42 -26
46 -27 63 -12 10 9 20 16 23 16 3 0 72 45 153 100 81 55 151 100 155 100 5 0
10 4 12 8 2 4 37 30 78 57 41 28 84 58 94 68 11 9 26 17 33 17 7 0 13 5 13 10
0 6 6 10 14 10 8 0 16 3 18 8 4 10 212 150 235 159 10 4 20 10 23 13 5 7 116
59 125 59 3 0 18 7 33 15 38 19 173 56 230 62 26 3 58 9 72 13 51 15 260 4
360 -18 25 -5 56 -12 70 -15 33 -6 52 -12 133 -45 17 -6 27 -7 27 -1 0 6 -7
10 -15 10 -8 0 -15 5 -15 10 0 6 -6 10 -12 10 -7 1 -29 14 -48 30 -19 17 -40
30 -46 30 -7 0 -14 4 -16 9 -1 4 -21 20 -43 34 -22 14 -134 89 -249 167 -226
152 -291 192 -300 183 -3 -4 -6 0 -6 7 0 7 -3 10 -7 7 -3 -4 -11 -3 -17 2 -10
8 -91 34 -147 47 -13 3 -73 7 -134 9 -150 6 -264 -19 -395 -85 -47 -24 -322
-203 -365 -238 -5 -4 -27 -18 -47 -31 -21 -12 -38 -26 -38 -31 0 -15 -28 -5
-82 30 -29 19 -55 36 -58 39 -6 7 -151 104 -165 111 -6 3 -26 17 -45 32 -80
60 -206 123 -305 150 -90 25 -285 31 -370 11z"/>
<path d="M3217 7224 c-1 -1 -30 -5 -65 -8 -147 -15 -379 -78 -477 -129 -22
-11 -45 -22 -50 -23 -17 -3 -190 -107 -193 -116 -2 -4 -8 -8 -13 -8 -17 0
-151 -112 -234 -195 -67 -68 -185 -193 -320 -340 -16 -18 -73 -80 -127 -137
-53 -56 -110 -119 -128 -138 -18 -19 -83 -89 -145 -155 -62 -66 -131 -141
-155 -167 -34 -38 -47 -47 -66 -42 -25 6 -9 22 -309 -302 -55 -59 -113 -122
-130 -140 -16 -17 -75 -80 -130 -140 -55 -59 -113 -122 -130 -139 -32 -35
-215 -231 -261 -281 -132 -142 -243 -261 -264 -282 -24 -23 -24 -23 -2 -13 12
7 22 9 22 5 0 -3 6 -2 13 3 17 14 300 105 367 118 8 2 35 8 60 15 25 7 54 14
65 16 11 2 31 6 45 9 64 14 164 33 210 40 14 2 39 6 55 9 17 3 48 8 70 11 22
3 58 8 80 11 22 3 56 7 75 9 19 2 49 6 65 9 17 2 71 8 120 11 50 4 108 9 130
11 44 4 307 14 400 15 61 1 282 -9 345 -16 119 -12 188 -18 208 -19 12 -1 22
-3 22 -6 0 -3 15 -6 33 -6 27 -1 98 -13 241 -40 16 -2 59 -12 95 -20 36 -8 77
-17 91 -20 14 -2 75 -18 135 -35 61 -16 115 -31 122 -32 7 -2 16 -6 19 -10 4
-4 17 -7 28 -7 12 0 52 -18 90 -40 37 -22 72 -40 77 -40 5 0 9 -4 9 -9 0 -5 8
-11 18 -14 9 -4 37 -18 62 -32 25 -14 46 -21 48 -16 2 5 15 6 30 2 15 -4 38
-5 52 -1 14 4 37 3 53 -1 15 -4 27 -4 27 1 0 11 78 -10 118 -32 18 -10 39 -18
46 -18 8 0 16 -3 18 -7 2 -5 77 -45 168 -91 91 -45 206 -104 255 -131 50 -26
137 -72 195 -103 58 -31 121 -64 140 -74 19 -11 37 -21 40 -24 3 -3 32 -19 65
-36 33 -17 85 -44 115 -61 111 -60 350 -187 535 -283 66 -34 129 -67 140 -73
11 -6 22 -12 25 -12 3 -1 75 -35 160 -77 85 -41 178 -86 205 -98 122 -55 207
-92 215 -95 3 -1 16 -6 30 -12 14 -6 45 -19 70 -29 25 -10 47 -21 50 -24 7 -9
227 -96 265 -106 17 -4 35 -10 40 -14 9 -7 96 -33 102 -31 2 0 23 -8 47 -19
24 -10 46 -17 48 -15 2 2 38 -7 81 -20 42 -13 77 -22 77 -20 0 2 18 -2 40 -10
22 -8 40 -12 40 -10 0 3 11 0 24 -5 13 -5 43 -12 67 -15 24 -4 47 -8 50 -11 4
-2 22 -6 40 -9 19 -2 45 -7 59 -10 14 -3 46 -7 71 -10 25 -3 56 -8 70 -11 24
-5 55 -9 139 -18 303 -35 740 -26 960 19 14 3 36 7 50 10 41 8 88 18 160 35
19 5 45 11 57 13 369 87 856 309 1263 574 52 34 100 65 105 70 6 4 33 23 60
42 203 140 458 347 678 551 79 74 260 254 325 324 24 27 51 46 63 46 15 0 19
4 15 16 -4 9 -2 22 4 29 8 9 4 13 -16 13 -21 -1 -62 35 -198 171 -94 94 -182
180 -196 191 -14 11 -30 23 -35 28 -43 35 -228 127 -276 136 -68 13 -97 19
-114 23 -43 11 -223 9 -286 -3 -126 -24 -199 -54 -416 -171 -132 -70 -323
-171 -393 -206 -36 -17 -67 -35 -70 -38 -3 -3 -36 -21 -75 -40 -38 -19 -72
-36 -75 -39 -26 -26 -130 -62 -130 -45 0 8 133 199 145 207 6 5 6 8 0 8 -6 0
-6 3 0 8 6 4 42 54 80 112 39 57 74 109 78 115 28 37 137 197 137 201 0 9
-124 189 -132 192 -5 2 -8 8 -8 13 0 6 -18 34 -40 64 -22 30 -40 59 -40 65 0
5 -4 10 -10 10 -5 0 -10 6 -10 14 0 8 -4 16 -8 18 -7 3 -64 85 -166 238 -16
25 -33 47 -36 50 -4 3 -9 13 -13 23 -11 29 -24 20 -75 -55 -27 -40 -64 -95
-83 -123 -18 -27 -37 -51 -41 -53 -4 -2 -8 -8 -8 -13 0 -7 -56 -95 -70 -109
-3 -3 -45 -66 -95 -140 -49 -74 -95 -140 -102 -147 -31 -34 -25 -51 69 -190
51 -76 95 -140 98 -143 3 -3 10 -13 15 -22 6 -9 61 -91 122 -182 62 -91 113
-167 113 -169 0 -3 -15 -11 -32 -18 -27 -11 -212 -14 -1026 -14 -935 0 -994 1
-1009 17 -11 12 -31 18 -60 18 -42 0 -46 3 -168 128 -68 70 -233 237 -365 372
-237 240 -756 768 -1238 1258 -503 513 -519 528 -602 592 -25 19 -47 37 -50
40 -17 19 -150 98 -235 140 -83 40 -297 122 -315 121 -4 -1 -61 10 -80 14 -18
5 -83 15 -125 21 -46 6 -302 13 -308 8z"/>
</g>
</svg>
