<svg xmlns="http://www.w3.org/2000/svg" width="16" height="11" viewBox="0 0 16 11">
  <path id="Icon_zocial-email" data-name="Icon zocial-email" d="M.072,14.094V5.042q0-.016.046-.3L5.349,9.3.134,14.408a1.354,1.354,0,0,1-.062-.314ZM.766,4.115a.654.654,0,0,1,.262-.047H15.115a.859.859,0,0,1,.278.047L10.147,8.688l-.694.566L8.08,10.4,6.707,9.254l-.694-.566ZM.782,15.021,6.043,9.882,8.08,11.564l2.037-1.681,5.261,5.139a.729.729,0,0,1-.262.047H1.029a.688.688,0,0,1-.247-.047ZM10.811,9.3l5.215-4.557a.954.954,0,0,1,.046.3v9.051a1.225,1.225,0,0,1-.046.314Z" transform="translate(-0.072 -4.068)" fill="#007540"/>
</svg>
