<svg id="Layer_1" data-name="Layer 1" xmlns="http://www.w3.org/2000/svg" viewBox="0 0 28.35 28.35"><defs><style>.cls-1{fill:#fff;}</style></defs><path class="cls-1" d="M14.17,9.45a4.72,4.72,0,1,1-4.72,4.72,4.72,4.72,0,0,1,4.72-4.72m0-2.6a7.33,7.33,0,1,0,7.33,7.32,7.32,7.32,0,0,0-7.33-7.32Z"/><path class="cls-1" d="M20.42,2.61a5.32,5.32,0,0,1,5.32,5.32V20.42a5.32,5.32,0,0,1-5.32,5.32H7.93a5.32,5.32,0,0,1-5.32-5.32V7.93A5.32,5.32,0,0,1,7.93,2.61H20.42m0-2.61H7.93A7.94,7.94,0,0,0,0,7.93V20.42a7.94,7.94,0,0,0,7.93,7.93H20.42a7.94,7.94,0,0,0,7.93-7.93V7.93A7.94,7.94,0,0,0,20.42,0Z"/><circle class="cls-1" cx="21.88" cy="6.46" r="1.73" transform="translate(10.56 26.28) rotate(-76.72)"/></svg>