<svg xmlns="http://www.w3.org/2000/svg" width="71" height="84" viewBox="0 0 71 84">
  <g id="Group_1101" data-name="Group 1101" transform="translate(-619 -1114)">
    <g id="Union_1" data-name="Union 1" transform="translate(619 1114)" fill="rgba(0,117,64,0.4)">
      <path d="M 35.89883422851562 83.03290557861328 L 27.60057830810547 69.29416656494141 L 27.49234390258789 69.11497497558594 L 27.28873252868652 69.06635284423828 C 23.49933242797852 68.16135406494141 19.90973281860352 66.63882446289062 16.61965560913086 64.54106903076172 C 13.38663291931152 62.47969818115234 10.53052234649658 59.92032241821289 8.130678176879883 56.93405532836914 C 5.708777904510498 53.92034530639648 3.822511196136475 50.55899810791016 2.524288892745972 46.94337844848633 C 1.181066632270813 43.20244598388672 0.5 39.27285385131836 0.5 35.26376724243164 C 0.5 30.5709114074707 1.425166726112366 26.01865577697754 3.249788999557495 21.73344421386719 C 5.012366771697998 17.59395599365234 7.535810947418213 13.87614440917969 10.75002193450928 10.68328857421875 C 13.96446704864502 7.490211009979248 17.70755577087402 4.98330020904541 21.87531089782715 3.232188940048218 C 26.19023323059082 1.419244408607483 30.77412223815918 0.5 35.4996452331543 0.5 C 40.22534561157227 0.5 44.80936813354492 1.419244408607483 49.1244010925293 3.232188940048218 C 53.29224395751953 4.983288764953613 57.035400390625 7.490211009979248 60.2498893737793 10.68330001831055 C 63.46414566040039 13.87614440917969 65.98760986328125 17.59394454956055 67.75019836425781 21.73344421386719 C 69.57483673095703 26.01864433288574 70.5 30.57089996337891 70.5 35.26376724243164 C 70.5 39.19226837158203 69.84549713134766 43.04718780517578 68.55467987060547 46.72145462036133 C 67.30686950683594 50.27330017089844 65.49094390869141 53.58723449707031 63.15734481811523 56.57122039794922 C 60.8470458984375 59.52542114257812 58.09093475341797 62.07864379882812 54.965576171875 64.15994262695312 C 51.79093170166016 66.27405548095703 48.31685638427734 67.84561920166016 44.63984298706055 68.83100128173828 L 44.44536590576172 68.88311004638672 L 44.34127807617188 69.05544281005859 L 35.89883422851562 83.03290557861328 Z" stroke="none"/>
      <path d="M 35.89883422851562 82.06581878662109 L 44.12147903442383 68.45226287841797 L 44.51042175292969 68.34803009033203 C 48.13478851318359 67.37677764892578 51.55916595458984 65.82767486572266 54.68843460083008 63.74377822875977 C 57.769287109375 61.69211196899414 60.48612213134766 59.17528915405273 62.76348876953125 56.26321029663086 C 65.0634765625 53.32217788696289 66.85320281982422 50.05611038208008 68.08294677734375 46.55572128295898 C 69.35501098632812 42.93485641479492 70 39.13568878173828 70 35.26376724243164 C 70 30.63859939575195 69.08827972412109 26.15224456787109 67.29016876220703 21.9293327331543 C 65.55298614501953 17.84952163696289 63.06574630737305 14.18515586853027 59.89752197265625 11.0380220413208 C 56.72883224487305 7.890433311462402 53.03906631469727 5.41925573348999 48.93072128295898 3.693155527114868 C 44.67734527587891 1.906111121177673 40.15847778320312 1 35.4996452331543 1 C 30.84098815917969 1 26.32226753234863 1.906111121177673 22.06898880004883 3.693144559860229 C 17.96073341369629 5.41925573348999 14.27104473114014 7.890433311462402 11.1023998260498 11.0380220413208 C 7.934211254119873 14.18515586853027 5.446989059448242 17.84952163696289 3.709822177886963 21.9293327331543 C 1.911711096763611 26.15225601196289 1 30.63861083984375 1 35.26376724243164 C 1 39.215087890625 1.671177744865417 43.08783340454102 2.994877815246582 46.77441024780273 C 4.274300098419189 50.33767700195312 6.133366584777832 53.6505012512207 8.520421981811523 56.62085723876953 C 10.88606643676758 59.56455612182617 13.70147800445557 62.08745574951172 16.88845634460449 64.11947631835938 C 20.13150024414062 66.18724822998047 23.66973304748535 67.68798828125 27.40487861633301 68.58003234863281 L 27.81209945678711 68.67729187011719 L 35.89883422851562 82.06581878662109 M 35.89883422851562 84 L 27.17258834838867 69.55268096923828 C 11.5849666595459 65.82996368408203 0 51.89059829711914 0 35.26376724243164 C 0 15.78824424743652 15.89385509490967 0 35.4996452331543 0 C 55.10615539550781 0 71 15.78824424743652 71 35.26376724243164 C 71 51.5541877746582 59.88013458251953 65.26453399658203 44.76926803588867 69.31395721435547 L 35.89883422851562 84 Z" stroke="none" fill="#007540"/>
    </g>
    <g id="Group_81" data-name="Group 81">
      <circle id="Ellipse_3" data-name="Ellipse 3" cx="26.5" cy="26.5" r="26.5" transform="translate(628 1123)" fill="#fff"/>
      <g id="Group_80" data-name="Group 80" transform="translate(172.387 751.386)">
        <path id="Path_282" data-name="Path 282" d="M470.644,407.678l.885,3.232.885-3.232-.02,4.233h16.06l-9.029-2.619.02-3.652-.885,3.232-.885-3.232.017,3.149-8.5-2.465-5.58,5.587h7.051Z" transform="translate(0 -14.182)" fill="#2d5667"/>
        <path id="Path_283" data-name="Path 283" d="M485.714,399.177l.885,3.232.885-3.232-.02,3.652,9.029,2.619-14.08-10.74-.017-.017-5.164,5.171,8.5,2.465Z" transform="translate(-8.038 -7.718)" fill="#00a59b"/>
        <path id="Path_284" data-name="Path 284" d="M482.523,414.847l.02-4.233-.885,3.232-.885-3.232.02,4.233Z" transform="translate(-10.129 -17.117)" fill="#00a59b"/>
        <path id="Path_285" data-name="Path 285" d="M474.374,431.685l-.017.017-10.744-10.758h24.841Z" transform="translate(0 -23.215)" fill="#0090e2"/>
        <path id="Path_286" data-name="Path 286" d="M524.24,420.945l7.448,5.715,5.5-5.715Z" transform="translate(-35.786 -23.215)" fill="#978d8b"/>
        <path id="Path_287" data-name="Path 287" d="M511.379,426.66l-7.448-5.715-14.08,10.74-.017.018,3.2,3.2a7.362,7.362,0,0,0,10.412,0l7.936-8.244Z" transform="translate(-15.477 -23.215)" fill="#b6a9a4"/>
        <path id="Path_288" data-name="Path 288" d="M503.443,383.771a7.362,7.362,0,0,0-10.412,0l-3.2,3.2.017.018,14.08,10.74h12.949Z" transform="translate(-15.477 0)" fill="#ef9700"/>
        <path id="Path_289" data-name="Path 289" d="M506.107,389.6l3.058-.727-2.795-.344-.6-1.766-.6,1.766-2.795.344,3.059.727.333.722Z" transform="translate(-22.884 -3.039)" fill="#af6e05"/>
        <g id="Group_79" data-name="Group 79" transform="translate(488.454 394.872)">
          <path id="Path_290" data-name="Path 290" d="M524.24,416.828l3.724-2.858,3.148,2.858Z" transform="translate(-524.24 -413.971)" fill="#6f635f"/>
          <path id="Path_291" data-name="Path 291" d="M541.012,418.9l1.508-1.419,1.713,1.419Z" transform="translate(-534.14 -416.042)" fill="#6f635f"/>
        </g>
      </g>
    </g>
  </g>
</svg>
