<svg xmlns="http://www.w3.org/2000/svg" width="22" height="22" viewBox="0 0 22 22">
  <g id="Icon_ionic-ios-images" data-name="Icon ionic-ios-images" transform="translate(-2.25 -2.249)">
    <path id="Path_305" data-name="Path 305" d="M16.363,13.958a.235.235,0,0,0-.382-.035l-4.564,6.069a.232.232,0,0,0,.159.382l8,.7a.236.236,0,0,0,.224-.353Z" transform="translate(-2.794 -3.538)" fill="#6e6e74"/>
    <path id="Path_306" data-name="Path 306" d="M25.124,18.521a.235.235,0,0,0-.382-.035L23.51,19.733a.232.232,0,0,0-.025.268l1.262,2.459a.231.231,0,0,0,.184.114l2.23.194a.236.236,0,0,0,.224-.353Z" transform="translate(-6.482 -4.901)" fill="#6e6e74"/>
    <path id="Path_307" data-name="Path 307" d="M26.087,14.8a1.175,1.175,0,1,0-1.177-1.4A1.184,1.184,0,0,0,26.087,14.8Z" transform="translate(-6.853 -3.086)" fill="#6e6e74"/>
    <path id="Path_308" data-name="Path 308" d="M23.028,7.029,19.8,6.749l-.3-3.291a1.326,1.326,0,0,0-1.448-1.2L3.463,3.571A1.332,1.332,0,0,0,2.255,5.015L3.571,19.577a1.326,1.326,0,0,0,1.448,1.2l.771-.069-.074.82a1.328,1.328,0,0,0,1.213,1.439l14.6,1.272a1.332,1.332,0,0,0,1.443-1.208L24.245,8.468A1.338,1.338,0,0,0,23.028,7.029ZM4.98,15.447a.338.338,0,0,1-.363-.3L3.733,5.324a.331.331,0,0,1,.3-.359L17.74,3.733a.338.338,0,0,1,.363.3l.236,2.593-9.9-.869A1.332,1.332,0,0,0,6.993,6.965l-.732,8.364Zm17.783-6.66L21.9,18.61a.334.334,0,0,1-.358.3l-.913-.079-12.8-1.115a.334.334,0,0,1-.3-.359l.187-2.156.673-7.667a.334.334,0,0,1,.358-.3l9.721.85,1.458.128,2.533.221A.321.321,0,0,1,22.763,8.787Z" fill="#6e6e74"/>
  </g>
</svg>
