<svg xmlns="http://www.w3.org/2000/svg" width="37.791" height="32.23" viewBox="0 0 37.791 32.23">
  <g id="Group_80" data-name="Group 80" transform="translate(-463.613 -381.614)">
    <path id="Path_282" data-name="Path 282" d="M470.644,407.678l.885,3.232.885-3.232-.02,4.233h16.06l-9.029-2.619.02-3.652-.885,3.232-.885-3.232.017,3.149-8.5-2.465-5.58,5.587h7.051Z" transform="translate(0 -14.182)" fill="#2d5667"/>
    <path id="Path_283" data-name="Path 283" d="M485.714,399.177l.885,3.232.885-3.232-.02,3.652,9.029,2.619-14.08-10.74-.017-.017-5.164,5.171,8.5,2.465Z" transform="translate(-8.038 -7.718)" fill="#00a59b"/>
    <path id="Path_284" data-name="Path 284" d="M482.523,414.847l.02-4.233-.885,3.232-.885-3.232.02,4.233Z" transform="translate(-10.129 -17.117)" fill="#00a59b"/>
    <path id="Path_285" data-name="Path 285" d="M474.374,431.685l-.017.017-10.744-10.758h24.841Z" transform="translate(0 -23.215)" fill="#0090e2"/>
    <path id="Path_286" data-name="Path 286" d="M524.24,420.945l7.448,5.715,5.5-5.715Z" transform="translate(-35.786 -23.215)" fill="#978d8b"/>
    <path id="Path_287" data-name="Path 287" d="M511.379,426.66l-7.448-5.715-14.08,10.74-.017.018,3.2,3.2a7.362,7.362,0,0,0,10.412,0l7.936-8.244Z" transform="translate(-15.477 -23.215)" fill="#b6a9a4"/>
    <path id="Path_288" data-name="Path 288" d="M503.443,383.771a7.362,7.362,0,0,0-10.412,0l-3.2,3.2.017.018,14.08,10.74h12.949Z" transform="translate(-15.477 0)" fill="#ef9700"/>
    <path id="Path_289" data-name="Path 289" d="M506.107,389.6l3.058-.727-2.795-.344-.6-1.766-.6,1.766-2.795.344,3.059.727.333.722Z" transform="translate(-22.884 -3.039)" fill="#af6e05"/>
    <g id="Group_79" data-name="Group 79" transform="translate(488.454 394.872)">
      <path id="Path_290" data-name="Path 290" d="M524.24,416.828l3.724-2.858,3.148,2.858Z" transform="translate(-524.24 -413.971)" fill="#6f635f"/>
      <path id="Path_291" data-name="Path 291" d="M541.012,418.9l1.508-1.419,1.713,1.419Z" transform="translate(-534.14 -416.042)" fill="#6f635f"/>
    </g>
  </g>
</svg>
