<svg id="Layer_1" data-name="Layer 1" xmlns="http://www.w3.org/2000/svg" viewBox="0 0 28.35 28.35"><defs><style>.cls-1{fill:#fff;}</style></defs><path class="cls-1" d="M25.1,6.17A4.67,4.67,0,0,0,27.58,3a11.13,11.13,0,0,1-3.72,1.39H23.8a5.84,5.84,0,0,0-10.09,4,6,6,0,0,0,.12,1.21l-.06,0c-6.4.27-11.88-6-11.88-6a6.1,6.1,0,0,0,1.67,7.9,7.57,7.57,0,0,1-2.5-.68c0,1.29.26,4.36,4.53,5.76a9.79,9.79,0,0,1-2.5.08s.63,3.71,5.33,4.06A11.54,11.54,0,0,1,0,23.12c3.07,1.77,8.9,4.48,16.12,1.08l1.21-.69a16.09,16.09,0,0,0,8-13.18l.1-2.08a8.41,8.41,0,0,0,2.88-2.84A13.88,13.88,0,0,1,25.1,6.17Z"/></svg>